<svg xmlns="http://www.w3.org/2000/svg" aria-hidden="true" style="display:none">
  <symbol id="icon-external" viewBox="0 0 24 24" fill="none" stroke="currentColor" stroke-width="2" stroke-linecap="round" stroke-linejoin="round">
    <path d="M18 13v6a2 2 0 0 1-2 2H5a2 2 0 0 1-2-2V8a2 2 0 0 1 2-2h6"></path>
    <polyline points="15 3 21 3 21 9"></polyline>
    <line x1="10" y1="14" x2="21" y2="3"></line>
  </symbol>

  <symbol id="icon-file" viewBox="0 0 24 24" fill="none" stroke="currentColor" stroke-width="2" stroke-linecap="round" stroke-linejoin="round">
    <path d="M14 2H6a2 2 0 0 0-2 2v16a2 2 0 0 0 2 2h12a2 2 0 0 0 2-2V8z"></path>
    <polyline points="14 2 14 8 20 8"></polyline>
    <line x1="8" y1="13" x2="16" y2="13"></line>
    <line x1="8" y1="17" x2="13" y2="17"></line>
  </symbol>

  <symbol id="icon-github" viewBox="0 0 24 24" fill="currentColor">
    <path d="M12 2c-5.52 0-10 4.48-10 10 0 4.42 2.87 8.17 6.84 9.49.5.09.68-.22.68-.48 0-.24-.01-.86-.01-1.69-2.78.6-3.37-1.2-3.37-1.2-.46-1.17-1.12-1.48-1.12-1.48-.91-.62.07-.61.07-.61 1 .07 1.53 1.03 1.53 1.03.9 1.54 2.36 1.09 2.94.83.09-.65.35-1.09.64-1.34-2.22-.25-4.56-1.11-4.56-4.95 0-1.09.39-1.98 1.03-2.68-.1-.25-.45-1.27.1-2.65 0 0 .84-.27 2.75 1.02.8-.22 1.66-.33 2.51-.34.85.01 1.71.12 2.51.34 1.9-1.29 2.74-1.02 2.74-1.02.56 1.38.21 2.4.11 2.65.64.7 1.03 1.59 1.03 2.68 0 3.85-2.34 4.7-4.57 4.95.36.31.69.92.69 1.86 0 1.34-.01 2.42-.01 2.75 0 .27.18.58.69.48A10.01 10.01 0 0 0 22 12c0-5.52-4.48-10-10-10z"></path>
  </symbol>

  <symbol id="icon-instagram" viewBox="0 0 24 24" fill="currentColor">
    <path d="M7 3h10a4 4 0 0 1 4 4v10a4 4 0 0 1-4 4H7a4 4 0 0 1-4-4V7a4 4 0 0 1 4-4zm10 2H7a2 2 0 0 0-2 2v10a2 2 0 0 0 2 2h10a2 2 0 0 0 2-2V7a2 2 0 0 0-2-2zm-5 3a4 4 0 1 1 0 8 4 4 0 0 1 0-8zm0 2a2 2 0 1 0 0 4 2 2 0 0 0 0-4zm5.25-.75a1 1 0 1 1-2 0 1 1 0 0 1 2 0z"></path>
  </symbol>

  <symbol id="icon-tiktok" viewBox="0 0 640 640" fill="none">
    <path d="M544.5 273.9C500.5 274 457.5 260.3 421.7 234.7L421.7 413.4C421.7 446.5 411.6 478.8 392.7 506C373.8 533.2 347.1 554 316.1 565.6C285.1 577.2 251.3 579.1 219.2 570.9C187.1 562.7 158.3 545 136.5 520.1C114.7 495.2 101.2 464.1 97.5 431.2C93.8 398.3 100.4 365.1 116.1 336C131.8 306.9 156.1 283.3 185.7 268.3C215.3 253.3 248.6 247.8 281.4 252.3L281.4 342.2C266.4 337.5 250.3 337.6 235.4 342.6C220.5 347.6 207.5 357.2 198.4 369.9C189.3 382.6 184.4 398 184.5 413.8C184.6 429.6 189.7 444.8 199 457.5C208.3 470.2 221.4 479.6 236.4 484.4C251.4 489.2 267.5 489.2 282.4 484.3C297.3 479.4 310.4 469.9 319.6 457.2C328.8 444.5 333.8 429.1 333.8 413.4L333.8 64L421.8 64C421.7 71.4 422.4 78.9 423.7 86.2C426.8 102.5 433.1 118.1 442.4 131.9C451.7 145.7 463.7 157.5 477.6 166.5C497.5 179.6 520.8 186.6 544.6 186.6L544.6 274z" fill="#1e6b3c"></path>
  </symbol>

  <symbol id="icon-arrow-up" viewBox="0 0 24 24" fill="none" stroke="currentColor" stroke-width="2" stroke-linecap="round" stroke-linejoin="round">
    <polyline points="18 15 12 9 6 15"></polyline>
  </symbol>
</svg>
